<svg width="8" height="9" viewBox="0 0 8 9" fill="none" xmlns="http://www.w3.org/2000/svg">
<path d="M4.83333 5.8348H1.91667V6.66814H4.83333M6.91667 7.91814H1.08333V3.3348H6.91667M6.91667 1.25147H6.5V0.418137H5.66667V1.25147H2.33333V0.418137H1.5V1.25147H1.08333C0.86232 1.25147 0.650358 1.33927 0.494078 1.49555C0.337797 1.65183 0.25 1.86379 0.25 2.0848V7.91814C0.25 8.13915 0.337797 8.35111 0.494078 8.50739C0.650358 8.66367 0.86232 8.75147 1.08333 8.75147H6.91667C7.13768 8.75147 7.34964 8.66367 7.50592 8.50739C7.6622 8.35111 7.75 8.13915 7.75 7.91814V2.0848C7.75 1.86379 7.6622 1.65183 7.50592 1.49555C7.34964 1.33927 7.13768 1.25147 6.91667 1.25147ZM6.08333 4.16814H1.91667V5.00147H6.08333V4.16814Z" fill="#2142D9"/>
</svg>
